<?xml version="1.0" standalone="no"?>
<!DOCTYPE svg PUBLIC "-//W3C//DTD SVG 20010904//EN"
 "http://www.w3.org/TR/2001/REC-SVG-20010904/DTD/svg10.dtd">
<svg version="1.0" xmlns="http://www.w3.org/2000/svg"
 width="512.000000pt" height="512.000000pt" viewBox="0 0 512.000000 512.000000"
 preserveAspectRatio="xMidYMid meet">

<g transform="translate(0.000000,512.000000) scale(0.100000,-0.100000)"
fill="#F59E0B" stroke="none">
<path d="M4588 5070 c-35 -9 -543 -245 -641 -298 -99 -53 -123 -154 -67 -274
16 -34 30 -68 30 -74 0 -12 -216 -117 -230 -112 -5 2 -45 76 -90 166 -68 136
-91 173 -143 226 -183 187 -418 179 -707 -25 -85 -60 -276 -242 -353 -336
l-50 -63 -610 0 c-550 0 -612 -2 -637 -17 -57 -33 -67 -107 -21 -154 27 -26
36 -29 95 -29 l66 0 0 -305 0 -305 -515 0 -515 0 0 305 0 305 36 0 c46 0 70
14 89 50 22 43 18 76 -14 112 l-29 33 -112 0 -112 0 -29 -33 -29 -32 0 -431
c0 -466 1 -472 55 -497 18 -8 107 -12 290 -12 l265 0 0 -305 0 -305 -271 0
c-166 0 -278 -4 -290 -10 -48 -26 -49 -40 -49 -498 0 -417 1 -430 20 -455 12
-15 38 -31 58 -37 21 -5 146 -10 285 -10 l247 0 0 -300 0 -299 -276 -3 -276
-3 -29 -33 -29 -32 0 -431 c0 -466 1 -472 55 -497 20 -9 604 -12 2506 -12
2699 0 2520 -4 2547 55 9 19 12 144 12 455 l0 430 -29 32 -29 33 -281 3 -281
3 0 299 0 299 273 3 c243 3 276 5 300 21 16 10 32 29 37 43 6 15 10 203 10
447 0 403 -1 423 -20 455 -11 17 -21 33 -22 34 -2 1 -131 5 -288 8 l-285 5 -5
378 -5 379 -28 24 -28 24 -266 0 -265 0 7 28 c41 161 24 251 -91 490 l-63 133
115 55 c64 30 119 54 123 54 4 0 21 -28 37 -62 38 -81 58 -104 107 -129 74
-38 109 -28 432 125 321 152 369 180 421 239 177 208 108 522 -142 639 -52 24
-81 31 -147 34 -45 2 -99 -1 -119 -6z m215 -226 c93 -66 119 -186 61 -281 -25
-40 -44 -55 -119 -95 -50 -26 -94 -48 -100 -48 -7 0 -162 311 -183 369 -2 6
109 62 168 85 8 3 41 4 73 3 44 -3 67 -10 100 -33z m-435 -326 l90 -186 -106
-51 c-58 -29 -110 -50 -116 -48 -6 3 -50 86 -98 187 l-87 182 112 53 c61 29
113 52 114 51 1 -1 42 -85 91 -188z m-1130 96 c28 -14 66 -44 84 -66 28 -36
168 -307 168 -326 0 -4 -60 -37 -132 -72 -120 -59 -134 -68 -144 -99 -14 -44
-7 -75 23 -106 40 -39 82 -33 216 30 63 30 119 55 124 55 9 0 113 -218 138
-290 21 -60 22 -158 1 -198 -55 -107 -218 -184 -476 -224 -132 -20 -553 -17
-715 5 -225 32 -455 88 -455 112 0 21 59 155 107 244 246 454 607 847 861 937
87 31 135 30 200 -2z m-1058 -538 c0 -2 -30 -51 -66 -108 -75 -118 -191 -344
-224 -435 l-23 -63 -218 0 -219 0 0 305 0 305 375 0 c206 0 375 -2 375 -4z
m-332 -1108 l-3 -303 -515 0 -515 0 -3 303 -2 302 520 0 520 0 -2 -302z m2452
-3 l0 -305 -512 2 -513 3 -3 227 -2 227 37 6 c148 25 305 76 383 124 33 20 48
21 323 21 l287 0 0 -305z m-2095 215 c212 -51 468 -80 713 -80 l152 0 0 -220
0 -220 -510 0 -510 0 0 281 c0 264 1 281 18 274 9 -3 71 -19 137 -35z m-975
-1025 l0 -305 -515 0 -515 0 0 305 0 305 515 0 515 0 0 -305z m1230 0 l0 -305
-515 0 -515 0 0 305 0 305 515 0 515 0 0 -305z m1230 0 l0 -305 -515 0 -515 0
0 305 0 305 515 0 515 0 0 -305z m1230 0 l0 -305 -515 0 -515 0 0 305 0 305
515 0 515 0 0 -305z m-3070 -805 l0 -300 -520 0 -520 0 0 300 0 300 520 0 520
0 0 -300z m1220 0 l0 -300 -510 0 -510 0 0 300 0 300 510 0 510 0 0 -300z
m1230 0 l0 -300 -515 0 -515 0 0 300 0 300 515 0 515 0 0 -300z m-3070 -805
l0 -305 -515 0 -515 0 0 305 0 305 515 0 515 0 0 -305z m1230 0 l0 -305 -515
0 -515 0 0 305 0 305 515 0 515 0 0 -305z m1230 0 l0 -305 -515 0 -515 0 0
305 0 305 515 0 515 0 0 -305z m1230 0 l0 -305 -515 0 -515 0 0 305 0 305 515
0 515 0 0 -305z"/>
<path d="M654 4271 c-30 -13 -64 -59 -64 -88 0 -32 26 -80 49 -93 66 -35 151
18 151 94 0 56 -83 109 -136 87z"/>
</g>
</svg>
